<svg xmlns="http://www.w3.org/2000/svg" width="64" height="64" viewBox="0 0 64 64" fill="none">
  <rect width="64" height="64" rx="18" fill="#020617"/>
  <rect x="12" y="12" width="40" height="40" rx="12" fill="#06B6D4" fill-opacity="0.15"/>
  <g transform="translate(18 18) scale(1.1667)" stroke="#67E8F9" stroke-width="2" stroke-linecap="round" stroke-linejoin="round" fill="none">
    <path d="M12 5a3 3 0 1 0-5.997.125 4 4 0 0 0-2.526 5.77 4 4 0 0 0 .556 6.588A4 4 0 1 0 12 18Z"/>
    <path d="M9 13a4.5 4.5 0 0 0 3-4"/>
    <path d="M6.003 5.125A3 3 0 0 0 6.401 6.5"/>
    <path d="M3.477 10.896a4 4 0 0 1 .585-.396"/>
    <path d="M6 18a4 4 0 0 1-1.967-.516"/>
    <path d="M12 13h4"/>
    <path d="M12 18h6a2 2 0 0 1 2 2v1"/>
    <path d="M12 8h8"/>
    <path d="M16 8V5a2 2 0 0 1 2-2"/>
  </g>
  <g fill="#67E8F9">
    <circle cx="36.67" cy="35.5" r="1.75"/>
    <circle cx="39" cy="23.83" r="1.75"/>
    <circle cx="41.33" cy="44.83" r="1.75"/>
    <circle cx="41.33" cy="29.67" r="1.75"/>
  </g>
</svg>
